<svg xmlns="http://www.w3.org/2000/svg" viewBox="0 0 256 256" role="img" aria-labelledby="title desc">
  <title id="title">Culture générale</title>
  <desc id="desc">Livre et étoile Season 1 pour Quizz Land.</desc>
  <defs>
    <linearGradient id="g" x1="44" x2="212" y1="38" y2="218" gradientUnits="userSpaceOnUse">
      <stop stop-color="#ffd54a"/>
      <stop offset=".5" stop-color="#7c5cff"/>
      <stop offset="1" stop-color="#39d5ff"/>
    </linearGradient>
  </defs>
  <rect width="256" height="256" rx="52" fill="#0b0b20"/>
  <path d="M56 70h60c18 0 32 14 32 32v98H88c-18 0-32-14-32-32V70Z" fill="url(#g)"/>
  <path d="M200 70h-52v130h20c18 0 32-14 32-32V70Z" fill="#e6e8ef" opacity=".88"/>
  <path d="M82 108h42M82 136h42M82 164h34" stroke="#0b1020" stroke-opacity=".66" stroke-width="10" stroke-linecap="round"/>
  <path d="m184 98 9 18 20 3-15 14 4 20-18-10-18 10 4-20-15-14 20-3 9-18Z" fill="#ffd54a"/>
</svg>
