<svg xmlns="http://www.w3.org/2000/svg" viewBox="0 0 256 256" role="img" aria-labelledby="title desc">
  <title id="title">Geographie</title>
  <desc id="desc">Icone Season 1 Geographie pour Quizz Land.</desc>
  <defs>
    <radialGradient id="bg" cx="35%" cy="22%" r="72%">
      <stop offset="0" stop-color="#ffffff" stop-opacity="0.92"/>
      <stop offset="0.32" stop-color="#22d3ee"/>
      <stop offset="1" stop-color="#0b1020"/>
    </radialGradient>
    <linearGradient id="rim" x1="0" x2="1" y1="0" y2="1">
      <stop offset="0" stop-color="#38d996"/>
      <stop offset="0.55" stop-color="#22d3ee"/>
      <stop offset="1" stop-color="#0b1020"/>
    </linearGradient>
    <filter id="softShadow" x="-35%" y="-35%" width="170%" height="180%">
      <feDropShadow dx="0" dy="18" stdDeviation="13" flood-color="#000000" flood-opacity="0.48"/>
      <feDropShadow dx="0" dy="0" stdDeviation="7" flood-color="#38d996" flood-opacity="0.5"/>
    </filter>
  </defs>
  <rect width="256" height="256" rx="52" fill="#070a16"/>
  <ellipse cx="128" cy="205" rx="74" ry="20" fill="#38d996" opacity="0.3"/>
  <ellipse cx="128" cy="203" rx="92" ry="27" fill="none" stroke="url(#rim)" stroke-width="5" opacity="0.72"/>
  <g filter="url(#softShadow)">
    <circle cx="128" cy="112" r="67" fill="url(#bg)"/>
    <circle cx="128" cy="112" r="67" fill="none" stroke="#ffffff" stroke-opacity="0.34" stroke-width="3"/>
    <path d="M73 119c16 36 80 52 112 5" fill="none" stroke="#ffffff" stroke-opacity="0.22" stroke-width="12" stroke-linecap="round"/>
    <text x="128" y="128" text-anchor="middle" dominant-baseline="middle" font-family="Inter, Arial Black, Arial, sans-serif" font-size="44" font-weight="900" fill="#fffaf0">??</text>
  </g>
  <path d="M50 59 61 36l11 23 23 11-23 11-11 23-11-23-23-11 23-11Z" fill="#38d996" opacity="0.76"/>
  <path d="M202 56h16v16h-16zM207 173h12v12h-12zM35 164h10v10H35z" fill="#22d3ee" opacity="0.78"/>
  <text x="128" y="235" text-anchor="middle" font-family="Inter, Arial, sans-serif" font-size="17" font-weight="900" letter-spacing="1" fill="#e6e8ef">9. GEOGRAPHIE</text>
</svg>
