<svg xmlns="http://www.w3.org/2000/svg" viewBox="0 0 256 256" role="img" aria-labelledby="title desc">
  <title id="title">Sport</title>
  <desc id="desc">Trophée sport Season 1 pour QuizzLand.</desc>
  <defs>
    <linearGradient id="g" x1="50" x2="206" y1="38" y2="218" gradientUnits="userSpaceOnUse">
      <stop stop-color="#ffd54a"/>
      <stop offset=".52" stop-color="#36d27c"/>
      <stop offset="1" stop-color="#0b1020"/>
    </linearGradient>
  </defs>
  <rect width="256" height="256" rx="52" fill="#07140e"/>
  <path d="M82 58h92v34c0 44-22 72-46 72S82 136 82 92V58Z" fill="url(#g)"/>
  <path d="M82 78H56v20c0 24 18 43 42 45M174 78h26v20c0 24-18 43-42 45" fill="none" stroke="#ffd54a" stroke-width="12" stroke-linecap="round"/>
  <path d="M128 164v30M94 202h68" stroke="#e6e8ef" stroke-opacity=".86" stroke-width="14" stroke-linecap="round"/>
  <circle cx="128" cy="102" r="24" fill="#07140e" opacity=".42"/>
  <path d="m128 82 7 14 15 2-11 10 3 15-14-8-14 8 3-15-11-10 15-2 7-14Z" fill="#ffd54a"/>
</svg>
