<svg xmlns="http://www.w3.org/2000/svg" width="1200" height="630" viewBox="0 0 1200 630" role="img" aria-labelledby="title desc">
  <title id="title">Quizz Land</title>
  <desc id="desc">Image de partage Quizz Land pour lancer un quiz entre amis.</desc>
  <defs>
    <linearGradient id="bg" x1="0" x2="1" y1="0" y2="1">
      <stop offset="0" stop-color="#101726"/>
      <stop offset="0.48" stop-color="#0b1020"/>
      <stop offset="1" stop-color="#171e31"/>
    </linearGradient>
    <linearGradient id="accent" x1="0" x2="1" y1="0" y2="0">
      <stop offset="0" stop-color="#e53935"/>
      <stop offset="0.5" stop-color="#ffd54a"/>
      <stop offset="1" stop-color="#39d5ff"/>
    </linearGradient>
  </defs>
  <rect width="1200" height="630" fill="url(#bg)"/>
  <path d="M80 90h1040v450H80z" fill="none" stroke="#e6e8ef" stroke-opacity=".16" stroke-width="2"/>
  <path d="M80 168h1040" stroke="#e6e8ef" stroke-opacity=".12" stroke-width="2"/>
  <g transform="translate(94 104)">
    <rect width="58" height="48" rx="8" fill="url(#accent)"/>
    <text x="29" y="32" text-anchor="middle" font-family="Arial, Helvetica, sans-serif" font-size="21" font-weight="900" fill="#0b1020">QL</text>
  </g>
  <text x="94" y="238" font-family="Arial, Helvetica, sans-serif" font-size="96" font-weight="900" fill="#e6e8ef">Quizz Land</text>
  <text x="98" y="306" font-family="Arial, Helvetica, sans-serif" font-size="38" font-weight="800" fill="#ffd54a">Quiz entre potes, sans compte</text>
  <g transform="translate(96 370)">
    <rect width="258" height="58" rx="8" fill="#e53935"/>
    <text x="129" y="38" text-anchor="middle" font-family="Arial, Helvetica, sans-serif" font-size="22" font-weight="900" fill="#fff">Créer une room</text>
  </g>
  <g transform="translate(382 370)">
    <rect width="250" height="58" rx="8" fill="#e6e8ef"/>
    <text x="125" y="38" text-anchor="middle" font-family="Arial, Helvetica, sans-serif" font-size="22" font-weight="900" fill="#0b1020">Inviter les potes</text>
  </g>
  <g transform="translate(808 218)">
    <rect width="238" height="238" rx="24" fill="#ffd54a"/>
    <path d="M864 284h124v34H864zm0 58h124v34H864zm0 58h86v34h-86z" fill="#0b1020"/>
    <circle cx="1020" cy="290" r="28" fill="#e53935"/>
    <circle cx="1004" cy="400" r="34" fill="#39d5ff"/>
  </g>
</svg>
