<svg xmlns="http://www.w3.org/2000/svg" viewBox="0 0 512 512">
  <defs>
    <radialGradient id="bgGlow" cx="50%" cy="42%" r="72%">
      <stop stop-color="#111a38"/>
      <stop offset=".55" stop-color="#050918"/>
      <stop offset="1" stop-color="#01030a"/>
    </radialGradient>
    <linearGradient id="redFace" x1="136" y1="78" x2="387" y2="423" gradientUnits="userSpaceOnUse">
      <stop stop-color="#ff3b39"/>
      <stop offset=".46" stop-color="#f80a18"/>
      <stop offset="1" stop-color="#a9000a"/>
    </linearGradient>
    <linearGradient id="redEdge" x1="158" y1="405" x2="365" y2="116" gradientUnits="userSpaceOnUse">
      <stop stop-color="#5b0007"/>
      <stop offset=".42" stop-color="#bd0610"/>
      <stop offset="1" stop-color="#ff3937"/>
    </linearGradient>
    <linearGradient id="boltFace" x1="226" y1="152" x2="321" y2="360" gradientUnits="userSpaceOnUse">
      <stop stop-color="#ffe65a"/>
      <stop offset=".42" stop-color="#ffb400"/>
      <stop offset="1" stop-color="#f17300"/>
    </linearGradient>
    <filter id="softShadow" x="-24%" y="-24%" width="148%" height="148%">
      <feDropShadow dx="0" dy="18" stdDeviation="14" flood-color="#000" flood-opacity=".5"/>
    </filter>
    <filter id="innerPop" x="-10%" y="-10%" width="120%" height="120%">
      <feDropShadow dx="0" dy="6" stdDeviation="3" flood-color="#460006" flood-opacity=".45"/>
    </filter>
  </defs>
  <rect width="512" height="512" rx="86" fill="url(#bgGlow)"/>
  <g filter="url(#softShadow)">
    <path fill="url(#redEdge)" d="M392.4 370.9 443 421.4c13.2 13.2 3.9 35.8-14.7 35.8h-12.2c-5.5 0-10.8-2.2-14.7-6.1l-39.9-40a181.7 181.7 0 1 1 30.9-40.2Z"/>
    <path fill="url(#redFace)" d="M377.7 351.9 426.4 400.7c8.9 8.9 2.6 24.1-10 24.1h-12.1c-3.8 0-7.4-1.5-10-4.1l-43.8-43.8A151.8 151.8 0 1 1 377.7 351.9Z"/>
    <path fill="#630007" opacity=".72" d="M393 390.1 426.4 423.5c8.9 8.9 2.6 24.1-10 24.1h-12.1c-3.8 0-7.4-1.5-10-4.1l-43.8-43.8A151.8 151.8 0 0 1 103.1 231.3 151.9 151.9 0 0 0 393 390.1Z"/>
    <circle cx="256" cy="247" r="113" fill="#f7f8fc"/>
    <circle cx="256" cy="247" r="119" fill="none" stroke="#3d0007" stroke-width="9"/>
    <path fill="#fff" opacity=".7" d="M134.7 195.8c27.8-68 107.9-100 175.9-72.1 22.4 9.2 40.5 23.6 54 41.2-18.3-21.2-42.1-36.7-70.6-44.2-65.7-17.3-132.2 17.5-157.9 78.1-.7 1.6-1.1 2.3-1.4 2.2-.3-.1-.3-1.8 0-5.2Z"/>
    <path filter="url(#innerPop)" fill="url(#boltFace)" stroke="#ee8700" stroke-width="9" stroke-linejoin="round" d="M291 131.3 177.6 280.4h68.2l-17.3 98.3 116.7-159.5h-69.9L291 131.3Z"/>
    <path fill="#fff" opacity=".36" d="M292 139.5 187.3 275.8l-9.7 4.6L291 131.3c7.2-4.9 15.2 2.4 12.8 10l-11.8-1.8Z"/>
    <circle cx="414" cy="414" r="36" fill="url(#redFace)"/>
    <circle cx="414" cy="414" r="23" fill="#ff302d" opacity=".82"/>
  </g>
</svg>
